<mxfile host="app.diagrams.net" modified="2021-08-31T01:34:25.444Z" agent="5.0 (Windows NT 10.0; Win64; x64) AppleWebKit/537.36 (KHTML, like Gecko) Chrome/92.0.4515.159 Safari/537.36 Edg/92.0.902.84" etag="nCWCaP2Cio-eg-QyQCwL" version="15.0.3" type="github">
  <diagram id="M5aYpJr7jo9P90h-YWN0" name="Page-1">
    <mxGraphModel dx="1038" dy="588" grid="1" gridSize="10" guides="1" tooltips="1" connect="1" arrows="1" fold="1" page="1" pageScale="1" pageWidth="827" pageHeight="1169" math="0" shadow="0">
      <root>
        <mxCell id="0" />
        <mxCell id="1" parent="0" />
        <mxCell id="rSPQiEW2BWppoo7q48J1-1" value="&amp;lt;구매자&amp;gt;" style="text;html=1;resizable=0;autosize=1;align=center;verticalAlign=middle;points=[];fillColor=none;strokeColor=none;rounded=0;" parent="1" vertex="1">
          <mxGeometry x="5" y="20" width="70" height="20" as="geometry" />
        </mxCell>
        <mxCell id="rSPQiEW2BWppoo7q48J1-2" value="&amp;lt;판매자&amp;gt;" style="text;html=1;resizable=0;autosize=1;align=center;verticalAlign=middle;points=[];fillColor=none;strokeColor=none;rounded=0;" parent="1" vertex="1">
          <mxGeometry x="5" y="300" width="70" height="20" as="geometry" />
        </mxCell>
        <mxCell id="rSPQiEW2BWppoo7q48J1-5" value="" style="edgeStyle=orthogonalEdgeStyle;rounded=0;orthogonalLoop=1;jettySize=auto;html=1;" parent="1" source="rSPQiEW2BWppoo7q48J1-3" target="rSPQiEW2BWppoo7q48J1-4" edge="1">
          <mxGeometry relative="1" as="geometry" />
        </mxCell>
        <mxCell id="rSPQiEW2BWppoo7q48J1-3" value="로그인" style="strokeWidth=2;html=1;shape=mxgraph.flowchart.start_1;whiteSpace=wrap;" parent="1" vertex="1">
          <mxGeometry x="15" y="150" width="75" height="40" as="geometry" />
        </mxCell>
        <mxCell id="rSPQiEW2BWppoo7q48J1-9" value="" style="edgeStyle=orthogonalEdgeStyle;rounded=0;orthogonalLoop=1;jettySize=auto;html=1;" parent="1" source="rSPQiEW2BWppoo7q48J1-4" edge="1">
          <mxGeometry relative="1" as="geometry">
            <mxPoint x="290" y="170" as="targetPoint" />
          </mxGeometry>
        </mxCell>
        <mxCell id="rSPQiEW2BWppoo7q48J1-4" value="서비스탐색" style="whiteSpace=wrap;html=1;strokeWidth=2;" parent="1" vertex="1">
          <mxGeometry x="150" y="150" width="80" height="40" as="geometry" />
        </mxCell>
        <mxCell id="rSPQiEW2BWppoo7q48J1-12" value="구매" style="whiteSpace=wrap;html=1;strokeWidth=2;" parent="1" vertex="1">
          <mxGeometry x="290" y="150" width="80" height="40" as="geometry" />
        </mxCell>
        <mxCell id="rSPQiEW2BWppoo7q48J1-25" value="구매취소" style="whiteSpace=wrap;html=1;strokeWidth=2;" parent="1" vertex="1">
          <mxGeometry x="560" y="150" width="80" height="40" as="geometry" />
        </mxCell>
        <mxCell id="rSPQiEW2BWppoo7q48J1-26" value="로그인" style="strokeWidth=2;html=1;shape=mxgraph.flowchart.start_1;whiteSpace=wrap;" parent="1" vertex="1">
          <mxGeometry x="15" y="340" width="75" height="40" as="geometry" />
        </mxCell>
        <mxCell id="rSPQiEW2BWppoo7q48J1-30" value="" style="edgeStyle=orthogonalEdgeStyle;rounded=0;orthogonalLoop=1;jettySize=auto;html=1;" parent="1" edge="1">
          <mxGeometry relative="1" as="geometry">
            <mxPoint x="90" y="359.5" as="sourcePoint" />
            <mxPoint x="150" y="359.5" as="targetPoint" />
          </mxGeometry>
        </mxCell>
        <mxCell id="rSPQiEW2BWppoo7q48J1-31" value="서비스&lt;br&gt;등록&lt;br&gt;여부" style="strokeWidth=2;html=1;shape=mxgraph.flowchart.decision;whiteSpace=wrap;" parent="1" vertex="1">
          <mxGeometry x="150" y="325" width="70" height="70" as="geometry" />
        </mxCell>
        <mxCell id="rSPQiEW2BWppoo7q48J1-32" value="판매" style="whiteSpace=wrap;html=1;strokeWidth=2;" parent="1" vertex="1">
          <mxGeometry x="145" y="450" width="80" height="40" as="geometry" />
        </mxCell>
        <mxCell id="rSPQiEW2BWppoo7q48J1-35" value="" style="edgeStyle=orthogonalEdgeStyle;rounded=0;orthogonalLoop=1;jettySize=auto;html=1;" parent="1" edge="1">
          <mxGeometry relative="1" as="geometry">
            <mxPoint x="184.5" y="395" as="sourcePoint" />
            <mxPoint x="184.5" y="445" as="targetPoint" />
            <Array as="points">
              <mxPoint x="184.5" y="415" />
              <mxPoint x="184.5" y="415" />
            </Array>
          </mxGeometry>
        </mxCell>
        <mxCell id="rSPQiEW2BWppoo7q48J1-36" value="" style="endArrow=none;dashed=1;html=1;entryX=0.5;entryY=0;entryDx=0;entryDy=0;" parent="1" edge="1">
          <mxGeometry width="50" height="50" relative="1" as="geometry">
            <mxPoint x="184.5" y="490" as="sourcePoint" />
            <mxPoint x="184.5" y="540" as="targetPoint" />
          </mxGeometry>
        </mxCell>
        <mxCell id="rSPQiEW2BWppoo7q48J1-37" value="판매취소" style="whiteSpace=wrap;html=1;strokeWidth=2;" parent="1" vertex="1">
          <mxGeometry x="145" y="540" width="80" height="40" as="geometry" />
        </mxCell>
        <mxCell id="rSPQiEW2BWppoo7q48J1-38" value="Yes" style="text;html=1;resizable=0;autosize=1;align=center;verticalAlign=middle;points=[];fillColor=none;strokeColor=none;rounded=0;" parent="1" vertex="1">
          <mxGeometry x="195" y="395" width="30" height="20" as="geometry" />
        </mxCell>
        <mxCell id="rSPQiEW2BWppoo7q48J1-39" value="No" style="text;html=1;resizable=0;autosize=1;align=center;verticalAlign=middle;points=[];fillColor=none;strokeColor=none;rounded=0;" parent="1" vertex="1">
          <mxGeometry x="210" y="325" width="30" height="20" as="geometry" />
        </mxCell>
        <mxCell id="rSPQiEW2BWppoo7q48J1-40" value="" style="edgeStyle=orthogonalEdgeStyle;rounded=0;orthogonalLoop=1;jettySize=auto;html=1;" parent="1" edge="1">
          <mxGeometry relative="1" as="geometry">
            <mxPoint x="220" y="359.5" as="sourcePoint" />
            <mxPoint x="280" y="359.5" as="targetPoint" />
          </mxGeometry>
        </mxCell>
        <mxCell id="rSPQiEW2BWppoo7q48J1-41" value="서비스&lt;br&gt;등록" style="whiteSpace=wrap;html=1;strokeWidth=2;" parent="1" vertex="1">
          <mxGeometry x="280" y="340" width="80" height="40" as="geometry" />
        </mxCell>
        <mxCell id="rSPQiEW2BWppoo7q48J1-44" value="" style="curved=1;endArrow=classic;html=1;exitX=1;exitY=0.5;exitDx=0;exitDy=0;" parent="1" source="rSPQiEW2BWppoo7q48J1-41" edge="1">
          <mxGeometry width="50" height="50" relative="1" as="geometry">
            <mxPoint x="390" y="360" as="sourcePoint" />
            <mxPoint x="250" y="360" as="targetPoint" />
            <Array as="points">
              <mxPoint x="370" y="320" />
              <mxPoint x="350" y="300" />
              <mxPoint x="240" y="300" />
            </Array>
          </mxGeometry>
        </mxCell>
        <mxCell id="rSPQiEW2BWppoo7q48J1-45" value="승인" style="text;html=1;resizable=0;autosize=1;align=center;verticalAlign=middle;points=[];fillColor=none;strokeColor=none;rounded=0;" parent="1" vertex="1">
          <mxGeometry x="280" y="385" width="40" height="20" as="geometry" />
        </mxCell>
        <mxCell id="rSPQiEW2BWppoo7q48J1-46" value="반려 후 수정" style="text;html=1;resizable=0;autosize=1;align=center;verticalAlign=middle;points=[];fillColor=none;strokeColor=none;rounded=0;" parent="1" vertex="1">
          <mxGeometry x="280" y="280" width="80" height="20" as="geometry" />
        </mxCell>
        <mxCell id="wE1SM_B-IhGJR4N7aiWU-1" value="" style="shape=image;verticalLabelPosition=bottom;labelBackgroundColor=#ffffff;verticalAlign=top;aspect=fixed;imageAspect=0;image=data:image/png,iVBORw0KGgoAAAANSUhEUgAAADAAAAAmCAYAAACCjRgBAAAHOUlEQVRYCdWZZ2gVWxCAY42dxCgWrFExVhSN2HtH8I/5oUSDiopgB1ETxfJDRey9KxqTWGPBiomgInZBVOwFezf2PvIN7yx7dzfee303z7yBye7dc86c6TPnJEz+5xAWLP+fP3+Ws2fPyunTp+Xo0aMyc+ZMGTBggCQkJCj269dPwL59+yqa32acubNmzZJjx44pjXPnzsnXr1+DZcOa71eA27dvy/bt22XUqFHSrl07qVmzpoSFhYUUa9WqpbTHjBmje927d89i0N+LpwBv376V1atXK9GiRYu6mC1RooSUK1dONY5go0ePVpw4caJaZNWqVZKamqq4cuVKmTFjhiQlJVnzWINFoAEtp0KKFy8uXbp0kXXr1snHjx9/K4NLgB07dkjVqlUtovny5ZO6devKlClTZN68eXLjxg15+fKlZGVl/ZZwIIPQgNbNmzeV9tSpU6VOnTqSP39+a38svnv37mzJ+QiApow2YHru3Lly+fLlbBfn1MCVK1dkzpw5Urt2bYufZcuWeW5nCfD06VPBdAUKFFA3IFj/Nnz69EkmTZokeEHZsmXl3bt3LpYsAa5du6bSli9fPiTu4drpDz88fPhQSpUqJYUKFZJnz565qFgCXL9+XcLDw1UITLd27Vq/AeSiFsIPxMfSpUulWrVqylNUVJQ8f/7ctYOnACYOYmJiZMSIEZKeni4vXrxwLQ71h8ePH+tegwcPlujoaMv/8+TJIyVLlvQvABNbtmyphcZIboQpXbq0IBApcOHChbJkyRI5c+aMvHnzxgfxWyeQCp3zTpw4IYsWLVJaQ4cOVdqRkZEW0+xLfZg/f740bNhQvcOvBVjUuXNn3f/Dhw+qDSxQo0YNDSQjjP1ZpEgRYWOD1atXl+bNm0vHjh0VmzVrpto04zwLFy7sw6ihhwuz19ixY2Xfvn1ilBEbG6v7ByRAhw4dnAqUnz9/Cqlt69atsmLFCmWsTZs20qJFCylTpownM4Ypr2eFChXU0tDo2rWrFixoUw/YywmNGjXS2hCQAFTAYACiJ0+eDApxp2AgYAvkzZtX0A7azi2AcgjgYsWK+Q9ik0YpaOPGjRNS69+CS5cuybBhw6RgwYLqogGnUTKR8VuqMsFItjh06JDkZHV+//69Bi6tNl2v4YFnUGm0bdu2kpaWppnEToR3cjPNVv/+/WXx4sWKFLyLFy9q9ab4+EP6fzpds75Pnz5Ks1KlSj5M487t27cXmkv6MpQZUBB36tRJvYZscP78ea0JELJ3qE7B+E1bTIrE1E7Ehxnzap3ttFBQt27ddE9cyACpnXn0a07wqcRMwmW8gFPTkSNHZMuWLdqlQrR169bSqlUradCggfYqdma83jlbkBJZw9ru3burJaB5/Phxr2312+vXr2XXrl1CbXKCSwC0/Sdw69YtwT3IGlRZO/INa969e9cvaWhs3LhR1q9fLxs2bJDMzMzfrvERgIMEVZIY+K/h8OHD0rRpU584MFbEwjt37vRkyUcAWlaziODKyMiQL1++eC4M5cdp06bpvgQq52I0f+rUKdm8ebNwSouIiNDx+Ph41wWAjwAQoPe29yr16tWTIUOGyN69e+XChQuh5FtpzZ49W5nr2bOn3Llzx5M+2QceUC5PO/gIwAQC6+rVqzJo0CBLcmMVnpwVEIpx+nWDKSkp2ssQcLQKJp3yG3zw4IEGIvONO9y/f1/TI0Ht1QPZGeW9V69eKsTBgwetIZcA9mYOybdt2yaTJ0+W+vXrS8WKFZWAXSDnO9UcC9Klgrgl1dReIEeOHKkMGK06Lfvjxw/p3bu3DBw40EcwzgukYgRmDuASILs0ymSTSgnyTZs2aann/ADSmTZp0kR7d84NnCdAenpSJ2O02RRKbja+f/8uVapU0THlxPYHa5ByaWmcEBcXp0p89eqVDlkCmDMxZfzfAszRdoDZuQbVG+uNHz/e2o5TH3dB3I7QvCEENyOkVHOgp+1mHWkZsATAPJiaQOZiKqeBq0UYmTBhgrUV2cfpkuY3N4TAgQMHdM6ePXv0tyUAmiIQzQLcguMclskJ4LYBDXP+NYCW0TZ3QsYC9Ez79++3fJ7LNXg014+WAIYIQeu8/ySwyc8QQnO4SCigcePG2iOZgLTTJPgRwgnEE4FsXMolAAtobZOTkzVt2WuCsU7lypW1QyQwhw8fLtyaLV++PCAkA5EAANZA0+vWLTExUdasWeMTQ9Qi5rOnAU8BzCDPJ0+e6Fl4+vTpeuFK20u3aYT5kyeZiYz27ds3rSsoyQSlfW/7OzHAZTA3dI8ePbKG/ApgzfznhU25LcCdiBmDaJHcTar0Qv5PwDmA+dxcmxaFGkCrQAIh+3DZawcEJS5MO8FVvx2CFsC+OFTvdKDc/WBNGOUqpkePHlqwqBV85zyCCzkhVwgAUwQymuZARTXHIjwJ2gULFmhcOpnnd64RwM4c/2AxaP/u9Z4rBfBiNLtvvwA4uY2TXQ3xdAAAAABJRU5ErkJggg==;" parent="1" vertex="1">
          <mxGeometry x="370" y="345" width="37.89" height="30" as="geometry" />
        </mxCell>
        <mxCell id="wE1SM_B-IhGJR4N7aiWU-5" value="&lt;font style=&quot;font-size: 9px&quot;&gt;*입력정보&lt;br&gt;&lt;span style=&quot;font-family: &amp;#34;맑은 고딕&amp;#34;&quot;&gt;서비스명&lt;/span&gt;&lt;span style=&quot;font-family: &amp;#34;맑은 고딕&amp;#34;&quot;&gt;, &lt;/span&gt;&lt;span style=&quot;font-family: &amp;#34;맑은 고딕&amp;#34;&quot;&gt;로고&lt;/span&gt;&lt;span style=&quot;font-family: &amp;#34;맑은 고딕&amp;#34;&quot;&gt;, &lt;/span&gt;&lt;span style=&quot;font-family: &amp;#34;맑은 고딕&amp;#34;&quot;&gt;카테고리,&lt;/span&gt;&lt;span style=&quot;font-family: &amp;#34;맑은 고딕&amp;#34;&quot;&gt;&lt;br&gt;&lt;/span&gt;&lt;span style=&quot;font-family: &amp;#34;맑은 고딕&amp;#34;&quot;&gt;공급회사&lt;/span&gt;&lt;span style=&quot;font-family: &amp;#34;맑은 고딕&amp;#34;&quot;&gt;, 서비스 한줄소개,&amp;nbsp;&lt;/span&gt;&lt;span style=&quot;font-family: &amp;#34;맑은 고딕&amp;#34;&quot;&gt;서비스 상세소개&lt;/span&gt;&lt;span style=&quot;font-family: &amp;#34;맑은 고딕&amp;#34;&quot;&gt;, &lt;/span&gt;&lt;span style=&quot;font-family: &amp;#34;맑은 고딕&amp;#34;&quot;&gt;서비스소개 이미지&lt;/span&gt;&lt;span style=&quot;font-family: &amp;#34;맑은 고딕&amp;#34;&quot;&gt;, &lt;br&gt;&lt;/span&gt;&lt;span style=&quot;font-family: &amp;#34;맑은 고딕&amp;#34;&quot;&gt;서비스구분(서비스비용, 제목, 내용), 문의가능시간&lt;/span&gt;&lt;/font&gt;" style="text;html=1;resizable=0;autosize=1;align=left;verticalAlign=middle;points=[];fillColor=none;strokeColor=none;rounded=0;" parent="1" vertex="1">
          <mxGeometry x="407.89" y="315" width="310" height="70" as="geometry" />
        </mxCell>
        <mxCell id="MGjdQdyoqBettxI6wvMd-1" value="" style="endArrow=classic;html=1;" parent="1" edge="1">
          <mxGeometry width="50" height="50" relative="1" as="geometry">
            <mxPoint x="320" y="470" as="sourcePoint" />
            <mxPoint x="230" y="469.5" as="targetPoint" />
          </mxGeometry>
        </mxCell>
        <mxCell id="MGjdQdyoqBettxI6wvMd-2" value="" style="endArrow=none;html=1;entryX=0.5;entryY=1;entryDx=0;entryDy=0;" parent="1" target="rSPQiEW2BWppoo7q48J1-41" edge="1">
          <mxGeometry width="50" height="50" relative="1" as="geometry">
            <mxPoint x="319.5" y="470" as="sourcePoint" />
            <mxPoint x="319.5" y="400" as="targetPoint" />
          </mxGeometry>
        </mxCell>
        <mxCell id="Ho0PQmX_tklh4IOd-EPe-1" value="" style="edgeStyle=orthogonalEdgeStyle;rounded=0;orthogonalLoop=1;jettySize=auto;html=1;" parent="1" edge="1">
          <mxGeometry relative="1" as="geometry">
            <mxPoint x="430" y="169.5" as="targetPoint" />
            <mxPoint x="370" y="169.5" as="sourcePoint" />
          </mxGeometry>
        </mxCell>
        <mxCell id="Ho0PQmX_tklh4IOd-EPe-2" value="카드결제" style="whiteSpace=wrap;html=1;strokeWidth=2;" parent="1" vertex="1">
          <mxGeometry x="430" y="150" width="80" height="40" as="geometry" />
        </mxCell>
        <mxCell id="Ho0PQmX_tklh4IOd-EPe-7" value="" style="endArrow=none;dashed=1;html=1;entryX=0.5;entryY=0;entryDx=0;entryDy=0;" parent="1" edge="1">
          <mxGeometry width="50" height="50" relative="1" as="geometry">
            <mxPoint x="560" y="169.5" as="sourcePoint" />
            <mxPoint x="510" y="169.5" as="targetPoint" />
          </mxGeometry>
        </mxCell>
        <mxCell id="Ho0PQmX_tklh4IOd-EPe-10" value="입금대기" style="whiteSpace=wrap;html=1;strokeWidth=2;" parent="1" vertex="1">
          <mxGeometry x="430" y="100" width="80" height="40" as="geometry" />
        </mxCell>
        <mxCell id="Ho0PQmX_tklh4IOd-EPe-11" value="" style="endArrow=none;html=1;" parent="1" edge="1">
          <mxGeometry width="50" height="50" relative="1" as="geometry">
            <mxPoint x="329.5" y="150" as="sourcePoint" />
            <mxPoint x="329.5" y="120" as="targetPoint" />
          </mxGeometry>
        </mxCell>
        <mxCell id="Ho0PQmX_tklh4IOd-EPe-12" value="" style="endArrow=classic;html=1;" parent="1" edge="1">
          <mxGeometry width="50" height="50" relative="1" as="geometry">
            <mxPoint x="330" y="119.5" as="sourcePoint" />
            <mxPoint x="430" y="120" as="targetPoint" />
          </mxGeometry>
        </mxCell>
        <mxCell id="qsBxPnK1iV2uwhUIH2ux-1" value="" style="edgeStyle=orthogonalEdgeStyle;rounded=0;orthogonalLoop=1;jettySize=auto;html=1;entryX=0;entryY=0.5;entryDx=0;entryDy=0;" parent="1" target="qsBxPnK1iV2uwhUIH2ux-2" edge="1">
          <mxGeometry relative="1" as="geometry">
            <mxPoint x="570" y="119.5" as="targetPoint" />
            <mxPoint x="510" y="119.5" as="sourcePoint" />
          </mxGeometry>
        </mxCell>
        <mxCell id="qsBxPnK1iV2uwhUIH2ux-2" value="입금완료" style="whiteSpace=wrap;html=1;strokeWidth=2;" parent="1" vertex="1">
          <mxGeometry x="560" y="100" width="80" height="40" as="geometry" />
        </mxCell>
        <mxCell id="qsBxPnK1iV2uwhUIH2ux-3" value="" style="endArrow=none;dashed=1;html=1;entryX=0.5;entryY=0;entryDx=0;entryDy=0;" parent="1" edge="1">
          <mxGeometry width="50" height="50" relative="1" as="geometry">
            <mxPoint x="469.5" y="100" as="sourcePoint" />
            <mxPoint x="469.5" y="60" as="targetPoint" />
          </mxGeometry>
        </mxCell>
        <mxCell id="qsBxPnK1iV2uwhUIH2ux-4" value="구매취소" style="whiteSpace=wrap;html=1;strokeWidth=2;" parent="1" vertex="1">
          <mxGeometry x="430" y="20" width="80" height="40" as="geometry" />
        </mxCell>
        <mxCell id="Fu6cNM32jnRf4YsiLFJB-4" value="" style="endArrow=none;dashed=1;html=1;entryX=0.5;entryY=0;entryDx=0;entryDy=0;" parent="1" edge="1">
          <mxGeometry width="50" height="50" relative="1" as="geometry">
            <mxPoint x="329.5" y="380" as="sourcePoint" />
            <mxPoint x="329.5" y="430" as="targetPoint" />
          </mxGeometry>
        </mxCell>
        <mxCell id="Fu6cNM32jnRf4YsiLFJB-5" value="" style="endArrow=none;dashed=1;html=1;" parent="1" edge="1">
          <mxGeometry width="50" height="50" relative="1" as="geometry">
            <mxPoint x="330" y="430" as="sourcePoint" />
            <mxPoint x="391.56" y="430" as="targetPoint" />
          </mxGeometry>
        </mxCell>
        <mxCell id="Fu6cNM32jnRf4YsiLFJB-6" value="서비스삭제" style="whiteSpace=wrap;html=1;strokeWidth=2;" parent="1" vertex="1">
          <mxGeometry x="390" y="410" width="80" height="40" as="geometry" />
        </mxCell>
      </root>
    </mxGraphModel>
  </diagram>
</mxfile>
